<svg width="64" height="64" viewBox="0 0 64 64" fill="none" xmlns="http://www.w3.org/2000/svg">
<path d="M29.6296 32.6161V18.4195H25.6387C21.2182 18.4195 18.8879 15.5532 18.8879 12.7681C18.8879 9.8755 21.0307 8.16121 23.897 8.16121C27.1919 8.16121 29.7633 10.7052 29.7633 14.9646V18.4195H34.2365V14.9646C34.2365 10.7052 36.8079 8.16121 40.1027 8.16121C42.969 8.16121 45.1382 9.87549 45.1382 12.7669C45.1382 15.5532 42.7268 18.4195 38.361 18.4195H34.3702V32.6172H53.2547C56.1736 32.6172 57.7542 31.4926 57.7542 28.6264V22.4115C57.7542 19.5726 56.1736 18.4206 53.2547 18.4206H47.0136C48.6742 16.9212 49.665 14.8846 49.665 12.5806C49.665 7.4115 45.5668 3.68921 40.3702 3.68921C36.513 3.68921 33.3793 5.83092 32.0136 9.6355C30.6467 5.83207 27.4867 3.68921 23.6296 3.68921C18.4593 3.68921 14.3347 7.4115 14.3347 12.5806C14.3347 14.8846 15.2993 16.9212 16.9862 18.4206H10.7462C7.98618 18.4206 6.24561 19.5726 6.24561 22.4115V28.6264C6.24561 31.4926 7.85246 32.6172 10.745 32.6172L29.6296 32.6161ZM29.6296 60.3121V35.4824H10.0753V53.5086C10.0753 57.9818 12.7005 60.3121 17.1736 60.3121H29.6296ZM34.3702 35.4824V60.3121H46.8262C51.2993 60.3121 53.9233 57.9818 53.9233 53.5086V35.4824H34.3702Z" fill="black"/>
</svg>
