<svg width="34" height="34" viewBox="0 0 34 34" fill="none" xmlns="http://www.w3.org/2000/svg">
<path d="M15.8666 2.2666C14.5066 2.2666 13.5999 3.17327 13.5999 4.53327V13.5999H4.53327C3.17327 13.5999 2.2666 14.5066 2.2666 15.8666V18.1333C2.2666 19.4933 3.17327 20.3999 4.53327 20.3999H13.5999V29.4666C13.5999 30.8266 14.5066 31.7333 15.8666 31.7333H18.1333C19.4933 31.7333 20.3999 30.8266 20.3999 29.4666V20.3999H29.4666C30.8266 20.3999 31.7333 19.4933 31.7333 18.1333V15.8666C31.7333 14.5066 30.8266 13.5999 29.4666 13.5999H20.3999V4.53327C20.3999 3.17327 19.4933 2.2666 18.1333 2.2666H15.8666Z" fill="black"/>
</svg>
