<svg width="64" height="64" viewBox="0 0 64 64" fill="none" xmlns="http://www.w3.org/2000/svg">
<path d="M4.26667 12.8C1.90293 12.8 0 14.703 0 17.0667V46.9334C0 49.2971 1.90293 51.2 4.26667 51.2H59.7333C62.0971 51.2 64 49.2971 64 46.9334V17.0667C64 14.703 62.0971 12.8 59.7333 12.8H4.26667ZM4.26667 17.0667H10.6667C11.0886 17.0667 11.5011 17.1918 11.8519 17.4262C12.2027 17.6607 12.4761 17.9938 12.6376 18.3837C12.7991 18.7735 12.8413 19.2024 12.759 19.6162C12.6767 20.0301 12.4735 20.4102 12.1752 20.7085C11.8768 21.0069 11.4967 21.2101 11.0829 21.2924C10.669 21.3747 10.2401 21.3325 9.85028 21.171C9.46046 21.0095 9.12728 20.7361 8.89287 20.3853C8.65845 20.0344 8.53333 19.622 8.53333 19.2L6.4 21.3334C6.82193 21.3334 7.23439 21.4585 7.58522 21.6929C7.93604 21.9273 8.20948 22.2605 8.37094 22.6503C8.53241 23.0401 8.57466 23.4691 8.49234 23.8829C8.41003 24.2967 8.20685 24.6769 7.90849 24.9752C7.61014 25.2736 7.23002 25.4767 6.81619 25.5591C6.40237 25.6414 5.97342 25.5991 5.58361 25.4377C5.19379 25.2762 4.86061 25.0028 4.6262 24.6519C4.39178 24.3011 4.26667 23.8886 4.26667 23.4667V17.0667ZM32 17.0667C37.888 17.0667 42.6667 23.7526 42.6667 32C42.6667 40.2475 37.888 46.9334 32 46.9334C26.112 46.9334 21.3333 40.2475 21.3333 32C21.3333 23.7526 26.112 17.0667 32 17.0667ZM53.3333 17.0667H59.7333V23.4667C59.7333 23.8886 59.6082 24.3011 59.3738 24.6519C59.1394 25.0028 58.8062 25.2762 58.4164 25.4377C58.0266 25.5991 57.5976 25.6414 57.1838 25.5591C56.77 25.4767 56.3899 25.2736 56.0915 24.9752C55.7932 24.6769 55.59 24.2967 55.5077 23.8829C55.4253 23.4691 55.4676 23.0401 55.6291 22.6503C55.7905 22.2605 56.064 21.9273 56.4148 21.6929C56.7656 21.4585 57.1781 21.3334 57.6 21.3334L55.4667 19.2C55.4667 19.622 55.3416 20.0344 55.1071 20.3853C54.8727 20.7361 54.5395 21.0095 54.1497 21.171C53.7599 21.3325 53.331 21.3747 52.9171 21.2924C52.5033 21.2101 52.1232 21.0069 51.8248 20.7085C51.5265 20.4102 51.3233 20.0301 51.241 19.6162C51.1587 19.2024 51.2009 18.7735 51.3624 18.3837C51.5239 17.9938 51.7973 17.6607 52.1481 17.4262C52.4989 17.1918 52.9114 17.0667 53.3333 17.0667ZM32 23.4667C30.6219 23.4667 29.7216 23.9318 29.0901 24.5334H34.9099C34.2784 23.9318 33.3781 23.4667 32 23.4667ZM28.2667 25.6C28.0747 25.9883 28.0021 26.3296 27.9253 26.6667H36.0747C35.9979 26.3296 35.9296 25.9883 35.7333 25.6H28.2667ZM27.7333 27.7334V28.8H36.2667V27.7334H27.7333ZM27.7333 29.8667V30.9334H36.2667V29.8667H27.7333ZM27.7333 32V33.0667H36.2667V32H27.7333ZM27.7333 34.1334L26.6667 35.2H35.2L36.2667 34.1334H27.7333ZM25.6 36.2667C25.6 36.2667 25.7493 36.7019 26.0352 37.3334H35.7333L34.1333 36.2667H25.6ZM6.4 38.4C6.9658 38.4 7.50842 38.6248 7.90849 39.0249C8.30857 39.425 8.53333 39.9676 8.53333 40.5334C8.53333 41.0992 8.30857 41.6418 7.90849 42.0419C7.50842 42.442 6.9658 42.6667 6.4 42.6667L8.53333 44.8C8.53333 44.3781 8.65845 43.9657 8.89287 43.6148C9.12728 43.264 9.46046 42.9906 9.85028 42.8291C10.2401 42.6676 10.669 42.6254 11.0829 42.7077C11.4967 42.79 11.8768 42.9932 12.1752 43.2916C12.4735 43.5899 12.6767 43.97 12.759 44.3839C12.8413 44.7977 12.7991 45.2266 12.6376 45.6164C12.4761 46.0063 12.2027 46.3394 11.8519 46.5739C11.5011 46.8083 11.0886 46.9334 10.6667 46.9334H4.26667V40.5334C4.26667 39.9676 4.49143 39.425 4.89151 39.0249C5.29158 38.6248 5.83421 38.4 6.4 38.4ZM26.6155 38.4C26.8117 38.767 26.9397 39.0784 27.2 39.4667H36.8768C37.1584 38.8779 37.3333 38.4 37.3333 38.4H26.6155ZM57.6 38.4C58.1658 38.4 58.7084 38.6248 59.1085 39.0249C59.5086 39.425 59.7333 39.9676 59.7333 40.5334V46.9334H53.3333C52.9114 46.9334 52.4989 46.8083 52.1481 46.5739C51.7973 46.3394 51.5239 46.0063 51.3624 45.6164C51.2009 45.2266 51.1587 44.7977 51.241 44.3839C51.3233 43.97 51.5265 43.5899 51.8248 43.2916C52.1232 42.9932 52.5033 42.79 52.9171 42.7077C53.331 42.6254 53.7599 42.6676 54.1497 42.8291C54.5395 42.9906 54.8727 43.264 55.1071 43.6148C55.3416 43.9657 55.4667 44.3781 55.4667 44.8L57.6 42.6667C57.0342 42.6667 56.4916 42.442 56.0915 42.0419C55.6914 41.6418 55.4667 41.0992 55.4667 40.5334C55.4667 39.9676 55.6914 39.425 56.0915 39.0249C56.4916 38.6248 57.0342 38.4 57.6 38.4ZM28.0149 40.5334C28.3506 40.9259 28.7204 41.2815 29.1243 41.6H35.1829C35.6096 41.2715 35.9851 40.9088 36.2667 40.5334H28.0149Z" fill="black"/>
</svg>
