<svg width="34" height="34" viewBox="0 0 34 34" fill="none" xmlns="http://www.w3.org/2000/svg">
<path d="M10.2001 9.0666V4.53327C10.2001 3.93211 10.4389 3.35558 10.864 2.93049C11.2891 2.50541 11.8656 2.2666 12.4668 2.2666H21.5334C22.1346 2.2666 22.7111 2.50541 23.1362 2.93049C23.5613 3.35558 23.8001 3.93211 23.8001 4.53327V9.0666H27.2001C27.8013 9.0666 28.3778 9.30541 28.8029 9.73049C29.228 10.1556 29.4668 10.7321 29.4668 11.3333V24.9333C29.4668 25.5344 29.228 26.111 28.8029 26.536C28.3778 26.9611 27.8013 27.1999 27.2001 27.1999H6.80011C6.19896 27.1999 5.62242 26.9611 5.19734 26.536C4.77226 26.111 4.53345 25.5344 4.53345 24.9333V11.3333C4.53345 10.7321 4.77226 10.1556 5.19734 9.73049C5.62242 9.30541 6.19896 9.0666 6.80011 9.0666H10.2001ZM12.4668 4.53327V9.0666H21.5334V4.53327H12.4668Z" fill="black"/>
</svg>
