<svg width="34" height="34" viewBox="0 0 34 34" fill="none" xmlns="http://www.w3.org/2000/svg">
<path d="M4.53345 6.79993C4.53345 4.3066 6.57345 2.2666 9.06678 2.2666H24.9334C27.4268 2.2666 29.4668 4.3066 29.4668 6.79993V24.9333C29.4668 27.1999 27.2001 27.1999 27.2001 27.1999V29.4666C27.2001 30.7133 26.1801 31.7333 24.9334 31.7333C23.6868 31.7333 22.6668 30.7133 22.6668 29.4666V27.1999H11.3334V29.4666C11.3334 30.7133 10.3134 31.7333 9.06678 31.7333C7.82011 31.7333 6.80011 30.7133 6.80011 29.4666V27.1999C4.53345 27.1999 4.53345 24.9333 4.53345 24.9333V6.79993ZM7.93345 9.0666C7.29878 9.0666 6.80011 9.56527 6.80011 10.1999V16.9999C6.80011 17.6346 7.29878 18.1333 7.93345 18.1333H26.0668C26.7014 18.1333 27.2001 17.6346 27.2001 16.9999V10.1999C27.2001 9.56527 26.7014 9.0666 26.0668 9.0666H7.93345ZM9.06678 20.3999C7.82011 20.3999 6.80011 21.4199 6.80011 22.6666C6.80011 23.9133 7.82011 24.9333 9.06678 24.9333C10.3134 24.9333 11.3334 23.9133 11.3334 22.6666C11.3334 21.4199 10.3134 20.3999 9.06678 20.3999ZM24.9334 20.3999C23.6868 20.3999 22.6668 21.4199 22.6668 22.6666C22.6668 23.9133 23.6868 24.9333 24.9334 24.9333C26.1801 24.9333 27.2001 23.9133 27.2001 22.6666C27.2001 21.4199 26.1801 20.3999 24.9334 20.3999ZM9.06678 5.6666C9.06678 6.30127 9.56545 6.79993 10.2001 6.79993H23.8001C24.4348 6.79993 24.9334 6.30127 24.9334 5.6666C24.9334 5.03193 24.4348 4.53327 23.8001 4.53327H10.2001C9.56545 4.53327 9.06678 5.03193 9.06678 5.6666Z" fill="black"/>
</svg>
