<svg width="34" height="34" viewBox="0 0 34 34" fill="none" xmlns="http://www.w3.org/2000/svg">
<path d="M24.7566 7.17627C24.7566 9.45654 23.9972 11.3855 23.1858 13.4549C22.2474 15.8395 21.2364 18.4076 21.2364 21.9096C21.2364 26.8192 22.7936 31.7311 24.4302 31.7311H27.7032C29.342 31.7311 30.897 26.8215 30.897 21.9096C30.897 18.4076 29.886 15.8395 28.9476 13.4549C28.1362 11.3877 27.3768 9.45654 27.3768 7.17627C27.3768 5.53974 27.7032 5.53747 27.7032 3.90094C27.6912 3.47069 27.515 3.06137 27.2106 2.75702C26.9063 2.45267 26.4969 2.2764 26.0667 2.2644C25.6364 2.2764 25.2271 2.45267 24.9228 2.75702C24.6184 3.06137 24.4422 3.47069 24.4302 3.90094C24.4302 5.53974 24.7566 5.53974 24.7566 7.17627ZM18.972 21.9096C18.972 19.1125 19.5478 16.8413 20.2187 14.9033C18.8793 13.3375 17.0971 12.2141 15.1068 11.6809C13.1164 11.1478 11.0113 11.23 9.06856 11.9166C7.12583 12.6032 5.4366 13.8622 4.22332 15.5276C3.01005 17.193 2.32961 19.1868 2.27162 21.2465C2.21363 23.3062 2.7808 25.3352 3.89845 27.0662C5.0161 28.7973 6.63182 30.1493 8.53284 30.9441C10.4339 31.739 12.531 31.9394 14.5482 31.5191C16.5654 31.0988 18.408 30.0774 19.8334 28.5895C19.2962 26.6288 18.972 24.2601 18.972 21.9096ZM11.8774 16.1387C11.8774 16.3232 11.841 16.506 11.7704 16.6765C11.6998 16.847 11.5962 17.0019 11.4657 17.1324C11.3352 17.2629 11.1803 17.3664 11.0098 17.437C10.8393 17.5077 10.6566 17.544 10.472 17.544C10.2875 17.544 10.1047 17.5077 9.93422 17.437C9.76372 17.3664 9.6088 17.2629 9.4783 17.1324C9.3478 17.0019 9.24429 16.847 9.17366 16.6765C9.10304 16.506 9.06669 16.3232 9.06669 16.1387C9.06669 15.766 9.21475 15.4085 9.4783 15.145C9.74185 14.8814 10.0993 14.7333 10.472 14.7333C10.8447 14.7333 11.2022 14.8814 11.4657 15.145C11.7293 15.4085 11.8774 15.766 11.8774 16.1387ZM9.61069 20.672C9.61069 21.0447 9.46263 21.4022 9.19908 21.6657C8.93552 21.9293 8.57807 22.0773 8.20535 22.0773C7.83264 22.0773 7.47518 21.9293 7.21163 21.6657C6.94808 21.4022 6.80002 21.0447 6.80002 20.672C6.80002 20.2993 6.94808 19.9418 7.21163 19.6783C7.47518 19.4147 7.83264 19.2667 8.20535 19.2667C8.57807 19.2667 8.93552 19.4147 9.19908 19.6783C9.46263 19.9418 9.61069 20.2993 9.61069 20.672ZM14.144 20.672C14.144 21.0447 13.996 21.4022 13.7324 21.6657C13.4689 21.9293 13.1114 22.0773 12.7387 22.0773C12.366 22.0773 12.0085 21.9293 11.745 21.6657C11.4814 21.4022 11.3334 21.0447 11.3334 20.672C11.3334 20.2993 11.4814 19.9418 11.745 19.6783C12.0085 19.4147 12.366 19.2667 12.7387 19.2667C13.1114 19.2667 13.4689 19.4147 13.7324 19.6783C13.996 19.9418 14.144 20.2993 14.144 20.672Z" fill="black"/>
</svg>
