<svg width="34" height="34" viewBox="0 0 34 34" fill="none" xmlns="http://www.w3.org/2000/svg">
<path d="M6.7954 6.95645C6.7954 6.95645 7.22153 4.54925 9.06207 4.54925H11.3423V3.91458C11.3423 3.614 11.4617 3.32574 11.6743 3.1132C11.8868 2.90065 12.1751 2.78125 12.4757 2.78125H21.5061C21.8066 2.78125 22.0949 2.90065 22.3075 3.1132C22.52 3.32574 22.6394 3.614 22.6394 3.91458V4.54925H24.9287C25.2037 4.54756 25.4756 4.60614 25.7255 4.72089C25.9753 4.83563 26.197 5.00374 26.3749 5.21338C26.7867 5.71865 27.0684 6.31712 27.1954 6.95645C27.1954 6.95645 27.9003 10.5197 28.5373 13.5706H26.4111L24.9333 6.80005L9.0258 6.79098L7.557 13.5683H5.39913L6.7954 6.95645ZM31.7287 18.0948C31.7287 18.6956 31.4902 19.2718 31.0656 19.6968C30.6411 20.1218 30.0651 20.3609 29.4643 20.3615L27.1977 29.367C27.1977 29.367 26.7715 31.7288 24.931 31.7288H9.06433C7.22153 31.7288 6.79767 29.367 6.79767 29.367L4.4902 20.3547C3.90208 20.332 3.34592 20.0812 2.93957 19.6554C2.53321 19.2296 2.30859 18.6624 2.31331 18.0739C2.31802 17.4853 2.5517 16.9217 2.96483 16.5026C3.37795 16.0834 3.93806 15.8415 4.52647 15.8282H29.4598C30.061 15.8282 30.6375 16.067 31.0626 16.4921C31.4877 16.9172 31.7265 17.4937 31.7265 18.0948M11.4081 27.4947L11.4013 24.9447L10.5173 21.4631C10.4958 21.3045 10.4434 21.1516 10.3629 21.0132C10.2823 20.8748 10.1754 20.7537 10.048 20.6566C9.92067 20.5596 9.77547 20.4886 9.62069 20.4477C9.46591 20.4068 9.30459 20.3968 9.14593 20.4182C8.98728 20.4396 8.8344 20.4921 8.69602 20.5726C8.55765 20.6531 8.43649 20.7601 8.33946 20.8874C8.24242 21.0148 8.17142 21.16 8.13051 21.3148C8.0896 21.4695 8.07957 21.6309 8.101 21.7895L8.56793 24.9515L8.9918 27.8234C9.03538 28.1438 9.20447 28.4338 9.46186 28.6295C9.71924 28.8253 10.0439 28.9108 10.3643 28.8672C10.6847 28.8236 10.9747 28.6545 11.1704 28.3971C11.3662 28.1397 11.4517 27.8151 11.4081 27.4947ZM15.9414 21.6082C15.9414 21.4493 15.9101 21.2921 15.8492 21.1453C15.7884 20.9986 15.6992 20.8653 15.5867 20.7531C15.4743 20.6409 15.3409 20.5519 15.194 20.4914C15.0472 20.4308 14.8898 20.3998 14.731 20.4H14.7083C14.5572 20.3998 14.4076 20.4297 14.2683 20.4881C14.1289 20.5465 14.0026 20.6321 13.8969 20.74C13.7788 20.8522 13.6847 20.9872 13.6204 21.1368C13.5562 21.2865 13.523 21.4476 13.5229 21.6105V27.6851C13.5229 28.0058 13.6503 28.3134 13.8771 28.5402C14.1038 28.767 14.4114 28.8944 14.7321 28.8944C15.0529 28.8944 15.3604 28.767 15.5872 28.5402C15.814 28.3134 15.9414 28.0058 15.9414 27.6851V21.6082ZM20.4702 21.6082C20.4699 21.3667 20.3969 21.131 20.2606 20.9316C20.1244 20.7323 19.9312 20.5786 19.7063 20.4907C19.5656 20.4305 19.414 20.3995 19.2609 20.3995C19.1078 20.3995 18.9563 20.4305 18.8155 20.4907C18.5907 20.5786 18.3975 20.7323 18.2612 20.9316C18.125 21.131 18.0519 21.3667 18.0517 21.6082V27.6828C18.0517 28.0036 18.1791 28.3111 18.4059 28.5379C18.6326 28.7647 18.9402 28.8921 19.2609 28.8921C19.5817 28.8921 19.8892 28.7647 20.116 28.5379C20.3428 28.3111 20.4702 28.0036 20.4702 27.6828V21.6082ZM25.8762 21.7895C25.8976 21.631 25.8876 21.4698 25.8468 21.3152C25.8059 21.1606 25.735 21.0155 25.6381 20.8882C25.5412 20.761 25.4201 20.6541 25.2819 20.5736C25.1436 20.4932 24.9909 20.4407 24.8324 20.4193C24.6739 20.3979 24.5127 20.4079 24.3581 20.4487C24.2034 20.4896 24.0584 20.5605 23.9311 20.6574C23.8039 20.7544 23.697 20.8754 23.6165 21.0136C23.5361 21.1519 23.4836 21.3046 23.4622 21.4631L22.5759 24.9198L22.5714 27.4947C22.5498 27.6532 22.5597 27.8144 22.6004 27.9691C22.6411 28.1238 22.7119 28.269 22.8087 28.3963C22.9055 28.5237 23.0265 28.6307 23.1647 28.7113C23.3029 28.7919 23.4556 28.8445 23.6141 28.866C23.7726 28.8876 23.9338 28.8778 24.0885 28.8371C24.2432 28.7963 24.3883 28.7255 24.5157 28.6287C24.643 28.5319 24.75 28.411 24.8306 28.2728C24.9112 28.1346 24.9638 27.9819 24.9854 27.8234L25.8762 21.7895Z" fill="black"/>
</svg>
