<svg width="34" height="34" viewBox="0 0 34 34" fill="none" xmlns="http://www.w3.org/2000/svg">
<path d="M7.93324 0L5.66657 12.4667C5.33564 14.2913 9.70577 15.1436 9.63324 17L9.06657 31.7333C8.98044 34 11.3332 34 11.3332 34C11.3332 34 13.686 34 13.5999 31.7333L13.0332 17C12.963 15.1459 16.9614 14.3253 16.9999 12.4667L14.7332 0H13.5999L14.1666 9.06667L12.4666 10.2L11.8999 0H10.7666L10.1999 10.2L8.49991 9.06667L9.06657 0H7.93324ZM27.1999 0C25.5316 0 22.7482 1.48467 21.6352 3.71053C20.7059 5.3788 20.3999 9.10747 20.3999 11.3333V17C20.3999 18.8541 22.8706 19.2667 23.7999 19.2667L22.6666 31.7333C22.4626 33.9909 24.9332 34 24.9332 34C24.9332 34 27.1999 34 27.1999 31.7333V0Z" fill="black"/>
</svg>
