<svg width="32" height="32" viewBox="0 0 32 32" fill="none" xmlns="http://www.w3.org/2000/svg">
<path fill-rule="evenodd" clip-rule="evenodd" d="M30.7727 22.1532C30.7727 28.9463 24.6173 32 16.0001 32C7.38297 32 1.22754 28.9463 1.22754 22.2012C1.22754 14.816 4.92125 11.0743 12.3064 7.33261L9.69154 2.46176C9.53552 2.21779 9.44865 1.93605 9.44017 1.64659C9.43169 1.35713 9.50194 1.07079 9.64341 0.818109C9.78488 0.56543 9.99228 0.355883 10.2435 0.211813C10.4947 0.0677433 10.7803 -0.005448 11.0698 4.36584e-05H21.5087C21.7801 0.00698763 22.0452 0.0828705 22.2792 0.220551C22.5132 0.358231 22.7083 0.55318 22.8461 0.787052C22.984 1.02092 23.0601 1.28602 23.0672 1.55741C23.0743 1.82879 23.0123 2.09753 22.887 2.33833L19.6938 7.33261C27.0767 11.024 30.7727 14.7658 30.7727 22.1532ZM17.4287 11.1703C17.4287 10.7914 17.2782 10.4281 17.0103 10.1602C16.7424 9.89227 16.379 9.74176 16.0001 9.74176C15.6212 9.74176 15.2579 9.89227 14.99 10.1602C14.722 10.4281 14.5715 10.7914 14.5715 11.1703V12.6035C13.6033 12.6408 12.6819 13.0303 11.9805 13.6989C11.2792 14.3674 10.846 15.2691 10.7623 16.2344C10.6787 17.1998 10.9504 18.1625 11.5264 18.9417C12.1023 19.7209 12.943 20.2631 13.8904 20.4663L17.2573 21.2023C17.6023 21.2766 17.9077 21.476 18.1145 21.7621C18.3212 22.0483 18.4147 22.4008 18.377 22.7517C18.3392 23.1027 18.1728 23.4273 17.9099 23.6628C17.647 23.8984 17.3062 24.0283 16.9533 24.0275H15.047C14.7514 24.0279 14.463 23.9367 14.2215 23.7664C13.98 23.5961 13.7972 23.3551 13.6984 23.0766C13.6407 22.8939 13.5468 22.7246 13.4223 22.5789C13.2978 22.4332 13.1453 22.314 12.9738 22.2285C12.8023 22.1429 12.6154 22.0928 12.4241 22.081C12.2328 22.0692 12.0412 22.096 11.8604 22.1598C11.6797 22.2236 11.5137 22.3231 11.3723 22.4524C11.2308 22.5817 11.1169 22.7382 11.0371 22.9124C10.9574 23.0867 10.9135 23.2752 10.9081 23.4668C10.9028 23.6583 10.936 23.849 11.0058 24.0275C11.2752 24.7861 11.7523 25.4539 12.3827 25.9546C13.0132 26.4553 13.7716 26.7688 14.5715 26.8595V28.3132C14.5715 28.6921 14.722 29.0554 14.99 29.3233C15.2579 29.5912 15.6212 29.7418 16.0001 29.7418C16.379 29.7418 16.7424 29.5912 17.0103 29.3233C17.2782 29.0554 17.4287 28.6921 17.4287 28.3132V26.8595C18.4373 26.7448 19.3725 26.2761 20.0679 25.5367C20.7633 24.7972 21.1739 23.8351 21.2266 22.8214C21.2792 21.8077 20.9706 20.8081 20.3555 20.0006C19.7404 19.1931 18.8588 18.63 17.8675 18.4115L14.5007 17.6755C14.2275 17.6196 13.985 17.4638 13.8206 17.2385C13.6563 17.0133 13.5818 16.7349 13.6118 16.4577C13.6418 16.1805 13.7741 15.9244 13.9829 15.7396C14.1917 15.5548 14.4619 15.4545 14.7407 15.4583H16.9533C17.2492 15.4562 17.5383 15.5467 17.7802 15.7172C18.0221 15.8878 18.2045 16.1297 18.3018 16.4092C18.4348 16.7575 18.6986 17.0401 19.0371 17.1965C19.3755 17.353 19.7617 17.3709 20.1132 17.2465C20.4647 17.1221 20.7536 16.8652 20.9182 16.5306C21.0829 16.1961 21.1102 15.8105 20.9944 15.456C20.727 14.6964 20.2504 14.0277 19.6196 13.527C18.9887 13.0264 18.2293 12.7142 17.4287 12.6263V11.1703Z" fill="black"/>
</svg>
