<svg width="32" height="32" viewBox="0 0 32 32" fill="none" xmlns="http://www.w3.org/2000/svg">
<path d="M17.7371 4.57129H2.28568C1.98257 4.57129 1.69188 4.6917 1.47756 4.90602C1.26323 5.12035 1.14282 5.41104 1.14282 5.71415V23.9999C1.14282 24.303 1.26323 24.5937 1.47756 24.808C1.69188 25.0223 1.98257 25.1427 2.28568 25.1427H29.7142C30.0174 25.1427 30.308 25.0223 30.5224 24.808C30.7367 24.5937 30.8571 24.303 30.8571 23.9999V21.7141M13.7143 25.1427L11.4285 30.857M18.2857 25.1427L20.5714 30.857M9.14282 30.857H22.8571" stroke="black" stroke-linecap="round" stroke-linejoin="round"/>
<path d="M30.6834 6.22168C30.4743 5.62685 30.0855 5.11174 29.5707 4.74768C29.056 4.38362 28.4407 4.18862 27.8102 4.18968H25.4514C24.7796 4.18801 24.1309 4.43502 23.6304 4.88312C23.1298 5.33122 22.8128 5.94871 22.7404 6.61661C22.6681 7.28452 22.8454 7.95558 23.2383 8.50051C23.6313 9.04544 24.212 9.42568 24.8685 9.56797L28.4617 10.3543C29.1958 10.5153 29.8446 10.9419 30.2835 11.552C30.7223 12.1622 30.9204 12.9129 30.8397 13.6602C30.7589 14.4074 30.405 15.0985 29.8459 15.6008C29.2868 16.1031 28.5618 16.3812 27.8102 16.3817H25.776C24.4502 16.3817 23.3211 15.5337 22.9028 14.3474M26.7931 4.18968V1.14282M26.7931 19.4285V16.3817" stroke="black" stroke-linecap="round" stroke-linejoin="round"/>
</svg>
