<svg width="32" height="32" viewBox="0 0 32 32" fill="none" xmlns="http://www.w3.org/2000/svg">
<path fill-rule="evenodd" clip-rule="evenodd" d="M23.6023 0.640057C23.7218 0.448247 23.8954 0.296149 24.1012 0.202984C24.3071 0.109818 24.5359 0.0797673 24.7589 0.116628L30.6355 1.0972C30.9342 1.14704 31.201 1.31346 31.3772 1.55991C31.5533 1.80635 31.6244 2.11264 31.5749 2.41149L30.5966 8.29034C30.5593 8.51319 30.4567 8.71998 30.3019 8.88456C30.1471 9.04915 29.9469 9.16414 29.7268 9.21502C29.5066 9.2659 29.2763 9.25038 29.065 9.17042C28.8537 9.09046 28.6708 8.94964 28.5395 8.76577L26.9532 6.54863L18.784 11.7692C18.4357 11.9921 18.0184 12.0816 17.6093 12.0211C17.2002 11.9606 16.8267 11.7542 16.5577 11.4401L12.0023 6.11434L3.48345 10.4915C3.07911 10.6994 2.60873 10.7382 2.17579 10.5993C1.74285 10.4604 1.38281 10.1553 1.17488 9.75091C0.966952 9.34657 0.928162 8.87619 1.06705 8.44325C1.20593 8.01031 1.51111 7.65027 1.91545 7.44234L11.6412 2.44349C11.9845 2.26709 12.3774 2.21174 12.7561 2.28641C13.1349 2.36108 13.4773 2.56139 13.728 2.85491L18.1943 8.07777L24.96 3.7532L23.6412 1.90863C23.51 1.72469 23.4364 1.50602 23.4295 1.28023C23.4225 1.05445 23.4827 0.831677 23.6023 0.640057ZM8.64002 11.8629L2.00688 15.6572C1.74484 15.8069 1.52695 16.0231 1.37524 16.284C1.22354 16.5448 1.14338 16.8411 1.14288 17.1429V30.2858C1.14288 31.2321 1.91088 32.0001 2.85717 32.0001H8.64002V11.8629ZM11.4972 32.0001H19.8812V16.4298L16.112 18.3132L12.3452 11.7212C12.1545 11.3863 11.8566 11.1254 11.4995 10.9806L11.4972 32.0001ZM29.1429 32.0001H22.7383V15.0012L28.3772 12.1806C28.6385 12.0501 28.9289 11.9886 29.2207 12.0019C29.5125 12.0151 29.7961 12.1028 30.0446 12.2564C30.293 12.41 30.4981 12.6246 30.6403 12.8798C30.7825 13.135 30.8572 13.4222 30.8572 13.7143V30.2858C30.8572 30.7404 30.6766 31.1765 30.3551 31.498C30.0336 31.8194 29.5975 32.0001 29.1429 32.0001Z" fill="black"/>
</svg>
