<svg width="32" height="32" viewBox="0 0 32 32" fill="none" xmlns="http://www.w3.org/2000/svg">
<path fill-rule="evenodd" clip-rule="evenodd" d="M5.7142 0C4.80489 0 3.93282 0.361223 3.28984 1.00421C2.64685 1.64719 2.28563 2.51926 2.28563 3.42857V23.8149L0.0593447 30.496C-0.00519638 30.6901 -0.0164481 30.898 0.026764 31.098C0.0699762 31.2979 0.166068 31.4826 0.305009 31.6328C0.443951 31.7829 0.620648 31.893 0.816659 31.9516C1.01267 32.0102 1.22081 32.015 1.41934 31.9657L10.4251 29.7143H28.5713C29.4807 29.7143 30.3527 29.3531 30.9957 28.7101C31.6387 28.0671 31.9999 27.195 31.9999 26.2857V3.42857C31.9999 2.51926 31.6387 1.64719 30.9957 1.00421C30.3527 0.361223 29.4807 0 28.5713 0L5.7142 0ZM8.85706 11.0766C8.85706 10.2857 9.49706 9.648 10.2856 9.648H23.9999C24.3788 9.648 24.7422 9.79851 25.0101 10.0664C25.278 10.3343 25.4285 10.6977 25.4285 11.0766C25.4285 11.4555 25.278 11.8188 25.0101 12.0867C24.7422 12.3546 24.3788 12.5051 23.9999 12.5051H10.2856C9.90675 12.5051 9.54339 12.3546 9.27548 12.0867C9.00757 11.8188 8.85706 11.4555 8.85706 11.0766ZM10.2856 17.2091C9.90675 17.2091 9.54339 17.3597 9.27548 17.6276C9.00757 17.8955 8.85706 18.2588 8.85706 18.6377C8.85706 19.0166 9.00757 19.38 9.27548 19.6479C9.54339 19.9158 9.90675 20.0663 10.2856 20.0663H19.4285C19.8074 20.0663 20.1707 19.9158 20.4386 19.6479C20.7066 19.38 20.8571 19.0166 20.8571 18.6377C20.8571 18.2588 20.7066 17.8955 20.4386 17.6276C20.1707 17.3597 19.8074 17.2091 19.4285 17.2091H10.2856Z" fill="black"/>
</svg>
